<?xml version="1.0" encoding="utf-8"?>
<svg viewBox="0 0 500 500" xmlns="http://www.w3.org/2000/svg" xmlns:bx="https://boxy-svg.com">
  <path d="M 125.27851035378195 347.635009765625 L 125.27851035378195 336.72591885653407 L 132.04342512650922 336.72591885653407 L 132.04342512650922 338.142822265625 L 126.92446205832742 338.142822265625 L 126.92446205832742 341.4666859019886 L 131.55869501287287 341.4666859019886 L 131.55869501287287 342.87826260653407 L 126.92446205832742 342.87826260653407 L 126.92446205832742 347.635009765625 Z M 133.62024203213778 347.635009765625 L 131.8730829412287 347.635009765625 L 135.7988641912287 336.72591885653407 L 137.70049771395597 336.72591885653407 L 141.62627896395597 347.635009765625 L 139.87911987304688 347.635009765625 L 136.7949579412287 338.7074529474432 L 136.7097306685014 338.7074529474432 Z M 133.91321078213778 343.36299272017044 L 139.58082441850144 343.36299272017044 L 139.58082441850144 344.7479359019886 L 133.91321078213778 344.7479359019886 Z M 151.7477430863814 340.2735040838068 L 150.08581126819956 340.2735040838068 Q 149.9899305863814 339.7408336292614 149.72892206365412 339.3360040838068 Q 149.46791354092684 338.93117453835225 149.08971751819956 338.6488591974432 Q 148.7115214954723 338.36654385653407 148.24543484774503 338.2227228338068 Q 147.77934820001775 338.07890181107956 147.25733115456322 338.07890181107956 Q 146.31450445001775 338.07890181107956 145.57142916592684 338.552978515625 Q 144.82835388183594 339.02705522017044 144.39955416592684 339.9432484019886 Q 143.97075445001775 340.8594415838068 143.97075445001775 342.18046431107956 Q 143.97075445001775 343.5121404474432 144.39955416592684 344.4283336292614 Q 144.82835388183594 345.34452681107956 145.57409251819956 345.81327681107956 Q 146.31983115456322 346.28202681107956 147.25200445001775 346.28202681107956 Q 147.76869479092684 346.28202681107956 148.23478143865412 346.140869140625 Q 148.7008680863814 345.99971147017044 149.07906410910866 345.7227228338068 Q 149.45726013183594 345.4457341974432 149.72093200683594 345.0435680042614 Q 149.98460388183594 344.64140181107956 150.08581126819956 344.119384765625 L 151.7477430863814 344.12471147017044 Q 151.61457547274503 344.92904385653407 151.23371609774503 345.60287198153407 Q 150.85285672274503 346.27670010653407 150.25892916592684 346.7640935724432 Q 149.66500160910866 347.25148703835225 148.90328285910866 347.517822265625 Q 148.14156410910866 347.78415749289775 147.24135104092684 347.78415749289775 Q 145.82444763183594 347.78415749289775 144.7164930863814 347.11032936789775 Q 143.60853854092684 346.43650124289775 142.97199734774503 345.17939897017044 Q 142.33545615456322 343.9222966974432 142.33545615456322 342.18046431107956 Q 142.33545615456322 340.43330522017044 142.97466070001775 339.17886629971593 Q 143.6138652454723 337.9244273792614 144.72181979092684 337.2505992542614 Q 145.8297743363814 336.5767711292614 147.24135104092684 336.5767711292614 Q 148.10960388183594 336.5767711292614 148.86333257501775 336.824462890625 Q 149.61706126819956 337.0721546519886 150.21897888183594 337.5488947088068 Q 150.8208964954723 338.025634765625 151.21507263183594 338.71011629971593 Q 151.60924876819956 339.3945978338068 151.7477430863814 340.2735040838068 Z M 146.68204706365412 347.6509898792614 L 147.72608115456322 347.6509898792614 L 147.64085388183594 348.0877796519886 Q 148.10427717729047 348.162353515625 148.45051297274503 348.46064897017044 Q 148.79674876819956 348.75894442471593 148.79674876819956 349.36086203835225 Q 148.80207547274503 350.0799671519886 148.17618768865412 350.5274103338068 Q 147.55029990456322 350.974853515625 146.3677714954723 350.974853515625 L 146.33581126819956 350.08529385653407 Q 146.88978854092684 350.08529385653407 147.23336098410866 349.92549272017044 Q 147.57693342729047 349.7656915838068 147.58226013183594 349.4088023792614 Q 147.5875868363814 349.05191317471593 147.31858825683594 348.9080921519886 Q 147.04958967729047 348.7642711292614 146.46365217729047 348.7056773792614 Z M 154.57072726162997 347.635009765625 L 152.82356817072088 347.635009765625 L 156.74934942072088 336.72591885653407 L 158.65098294344816 336.72591885653407 L 162.57676419344816 347.635009765625 L 160.82960510253906 347.635009765625 L 157.74544317072088 338.7074529474432 L 157.6602158979936 338.7074529474432 Z M 154.86369601162997 343.36299272017044 L 160.53130964799362 343.36299272017044 L 160.53130964799362 344.7479359019886 L 154.86369601162997 344.7479359019886 Z M 168.12441184303978 336.72591885653407 L 170.12192604758522 336.72591885653407 L 173.5949374112216 345.20603249289775 L 173.7227783203125 345.20603249289775 L 177.19578968394887 336.72591885653407 L 179.1933038884943 336.72591885653407 L 179.1933038884943 347.635009765625 L 177.6272527521307 347.635009765625 L 177.6272527521307 339.7408336292614 L 177.52604536576706 339.7408336292614 L 174.3087158203125 347.6190296519886 L 173.0089999112216 347.6190296519886 L 169.79167036576703 339.73550692471593 L 169.6904629794034 339.73550692471593 L 169.6904629794034 347.635009765625 L 168.12441184303978 347.635009765625 Z M 181.59093405983666 347.635009765625 L 181.59093405983666 336.72591885653407 L 188.43042269620028 336.72591885653407 L 188.43042269620028 338.142822265625 L 183.2368857643821 338.142822265625 L 183.2368857643821 341.4666859019886 L 188.07353349165484 341.4666859019886 L 188.07353349165484 342.87826260653407 L 183.2368857643821 342.87826260653407 L 183.2368857643821 346.21810635653407 L 188.49434315074575 346.21810635653407 L 188.49434315074575 347.635009765625 Z M 190.63431479714134 347.635009765625 L 190.63431479714134 336.72591885653407 L 192.28026650168678 336.72591885653407 L 192.28026650168678 346.21810635653407 L 197.2234483198686 346.21810635653407 L 197.2234483198686 347.635009765625 Z M 199.09798362038353 347.635009765625 L 199.09798362038353 336.72591885653407 L 200.74393532492897 336.72591885653407 L 200.74393532492897 341.4666859019886 L 206.18250066583806 341.4666859019886 L 206.18250066583806 336.72591885653407 L 207.83377907492897 336.72591885653407 L 207.83377907492897 347.635009765625 L 206.18250066583806 347.635009765625 L 206.18250066583806 342.87826260653407 L 200.74393532492897 342.87826260653407 L 200.74393532492897 347.635009765625 Z M 219.7045010653409 342.18046431107956 Q 219.7045010653409 343.9276234019886 219.06529651988637 345.1820623224432 Q 218.4260919744318 346.43650124289775 217.31547407670456 347.11032936789775 Q 216.20485617897728 347.78415749289775 214.7932794744318 347.78415749289775 Q 213.3763760653409 347.78415749289775 212.26575816761363 347.11032936789775 Q 211.15514026988637 346.43650124289775 210.5159357244318 345.17939897017044 Q 209.87673117897728 343.9222966974432 209.87673117897728 342.18046431107956 Q 209.87673117897728 340.43330522017044 210.5159357244318 339.17886629971593 Q 211.15514026988637 337.9244273792614 212.26575816761363 337.2505992542614 Q 213.3763760653409 336.5767711292614 214.7932794744318 336.5767711292614 Q 216.20485617897728 336.5767711292614 217.31547407670456 337.2505992542614 Q 218.4260919744318 337.9244273792614 219.06529651988637 339.17886629971593 Q 219.7045010653409 340.43330522017044 219.7045010653409 342.18046431107956 Z M 218.0745294744318 342.18046431107956 Q 218.0745294744318 340.84878817471593 217.64572975852272 339.93525834517044 Q 217.21693004261363 339.021728515625 216.47385475852272 338.55031516335225 Q 215.7307794744318 338.07890181107956 214.7932794744318 338.07890181107956 Q 213.85045276988637 338.07890181107956 213.1100408380682 338.55031516335225 Q 212.36962890625 339.021728515625 211.9408291903409 339.93525834517044 Q 211.5120294744318 340.84878817471593 211.5120294744318 342.18046431107956 Q 211.5120294744318 343.5121404474432 211.9408291903409 344.4256702769886 Q 212.36962890625 345.33920010653407 213.1100408380682 345.8106134588068 Q 213.85045276988637 346.28202681107956 214.7932794744318 346.28202681107956 Q 215.7307794744318 346.28202681107956 216.47385475852272 345.8106134588068 Q 217.21693004261363 345.33920010653407 217.64572975852272 344.4256702769886 Q 218.0745294744318 343.5121404474432 218.0745294744318 342.18046431107956 Z M 221.75281455300072 347.635009765625 L 221.75281455300072 336.72591885653407 L 225.64130887118253 336.72591885653407 Q 226.90906455300072 336.72591885653407 227.7480205189098 337.1627086292614 Q 228.5869764848189 337.5994984019886 229.00245943936434 338.3692072088068 Q 229.4179423939098 339.138916015625 229.4179423939098 340.14566317471593 Q 229.4179423939098 341.1470836292614 228.99979608709162 341.9061390269886 Q 228.58164978027344 342.66519442471593 227.74269381436434 343.0860040838068 Q 226.90373784845525 343.50681374289775 225.63598216663706 343.50681374289775 L 222.69031455300072 343.50681374289775 L 222.69031455300072 342.0899103338068 L 225.48683443936434 342.0899103338068 Q 226.28584012118253 342.0899103338068 226.78921370072797 341.86086203835225 Q 227.29258728027344 341.63181374289775 227.52696228027344 341.19502397017044 Q 227.76133728027344 340.7582341974432 227.76133728027344 340.14566317471593 Q 227.76133728027344 339.5277654474432 227.52429892800072 339.07499556107956 Q 227.28726057572797 338.62222567471593 226.78388699618253 338.37986061789775 Q 226.28051341663706 338.13749556107956 225.46552762118253 338.13749556107956 L 223.39876625754616 338.13749556107956 L 223.39876625754616 347.635009765625 Z M 227.13811284845525 342.713134765625 L 229.83342534845525 347.635009765625 L 227.95842534845525 347.635009765625 L 225.3163798939098 342.713134765625 Z M 231.42806174538353 347.635009765625 L 231.42806174538353 336.72591885653407 L 238.26755038174716 336.72591885653407 L 238.26755038174716 338.142822265625 L 233.07401344992897 338.142822265625 L 233.07401344992897 341.4666859019886 L 237.91066117720172 341.4666859019886 L 237.91066117720172 342.87826260653407 L 233.07401344992897 342.87826260653407 L 233.07401344992897 346.21810635653407 L 238.33147083629262 346.21810635653407 L 238.33147083629262 347.635009765625 Z M 246.42137145996094 339.5916859019886 Q 246.33614418723366 338.83529385653407 245.71824645996094 338.41714754971593 Q 245.10034873268822 337.99900124289775 244.16284873268822 337.99900124289775 Q 243.49168395996094 337.99900124289775 243.00162714177912 338.2094060724432 Q 242.5115703235973 338.4198109019886 242.24257174405184 338.78469016335225 Q 241.9735731645064 339.14956942471593 241.9735731645064 339.61299272017044 Q 241.9735731645064 340.0018421519886 242.15734447132456 340.28415749289775 Q 242.34111577814275 340.5664728338068 242.64207458496094 340.75557084517044 Q 242.94303339177912 340.94466885653407 243.28926918723366 341.06984641335225 Q 243.63550498268822 341.19502397017044 243.95510725541547 341.27492453835225 L 245.0204481645064 341.55191317471593 Q 245.54246520996094 341.6797540838068 246.09111577814275 341.89814897017044 Q 246.63976634632456 342.11654385653407 247.10851634632456 342.47343306107956 Q 247.57726634632456 342.830322265625 247.86757174405184 343.357666015625 Q 248.15787714177912 343.885009765625 248.15787714177912 344.62009499289775 Q 248.15787714177912 345.5469415838068 247.68113708496094 346.2660466974432 Q 247.20439702814275 346.98515181107956 246.30152060768822 347.400634765625 Q 245.39864418723366 347.81611772017044 244.12023509632456 347.81611772017044 Q 242.89509305087003 347.81611772017044 242.00020668723366 347.42726828835225 Q 241.1053203235973 347.03841885653407 240.59928339177912 346.32197709517044 Q 240.09324645996094 345.6055353338068 240.0399794145064 344.62009499289775 L 241.6912578235973 344.62009499289775 Q 241.7391981645064 345.2113591974432 242.07744390314275 345.60287198153407 Q 242.41568964177912 345.994384765625 242.94569674405184 346.1834827769886 Q 243.47570384632456 346.37258078835225 244.10958168723366 346.37258078835225 Q 244.80737998268822 346.37258078835225 245.3533671985973 346.15152254971593 Q 245.8993544145064 345.93046431107956 246.21362998268822 345.5336248224432 Q 246.52790555087003 345.1367853338068 246.52790555087003 344.6041148792614 Q 246.52790555087003 344.119384765625 246.25358026677912 343.8104359019886 Q 245.97925498268822 343.50148703835225 245.51316833496094 343.299072265625 Q 245.04708168723366 343.09665749289775 244.46114418723366 342.94218306107956 L 243.17208168723366 342.59062056107956 Q 241.86171236905184 342.23373135653407 241.09733026677912 341.541259765625 Q 240.3329481645064 340.84878817471593 240.3329481645064 339.7088734019886 Q 240.3329481645064 338.7660466974432 240.84431180087003 338.0629216974432 Q 241.35567543723366 337.3597966974432 242.22925498268822 336.96828391335225 Q 243.10283452814275 336.5767711292614 244.2001356645064 336.5767711292614 Q 245.30809020996094 336.5767711292614 246.15769958496094 336.96562056107956 Q 247.00730895996094 337.35446999289775 247.49736577814275 338.0336248224432 Q 247.98742259632456 338.7127796519886 248.0087294145064 339.5916859019886 Z M 263.1552137895064 340.2735040838068 L 261.49328197132456 340.2735040838068 Q 261.3974012895064 339.7408336292614 261.1363927667791 339.3360040838068 Q 260.8753842440519 338.93117453835225 260.49718822132456 338.6488591974432 Q 260.1189921985973 338.36654385653407 259.65290555087 338.2227228338068 Q 259.18681890314275 338.07890181107956 258.6648018576882 338.07890181107956 Q 257.72197515314275 338.07890181107956 256.9788998690519 338.552978515625 Q 256.23582458496094 339.02705522017044 255.80702486905184 339.9432484019886 Q 255.37822515314275 340.8594415838068 255.37822515314275 342.18046431107956 Q 255.37822515314275 343.5121404474432 255.80702486905184 344.4283336292614 Q 256.23582458496094 345.34452681107956 256.98156322132456 345.81327681107956 Q 257.7273018576882 346.28202681107956 258.65947515314275 346.28202681107956 Q 259.1761654940519 346.28202681107956 259.6422521417791 346.140869140625 Q 260.1083387895064 345.99971147017044 260.4865348122337 345.7227228338068 Q 260.86473083496094 345.4457341974432 261.12840270996094 345.0435680042614 Q 261.39207458496094 344.64140181107956 261.49328197132456 344.119384765625 L 263.1552137895064 344.12471147017044 Q 263.02204617587 344.92904385653407 262.64118680087 345.60287198153407 Q 262.26032742587 346.27670010653407 261.6663998690519 346.7640935724432 Q 261.0724723122337 347.25148703835225 260.3107535622337 347.517822265625 Q 259.5490348122337 347.78415749289775 258.6488217440519 347.78415749289775 Q 257.23191833496094 347.78415749289775 256.1239637895064 347.11032936789775 Q 255.01600924405184 346.43650124289775 254.37946805087003 345.17939897017044 Q 253.74292685768822 343.9222966974432 253.74292685768822 342.18046431107956 Q 253.74292685768822 340.43330522017044 254.38213140314275 339.17886629971593 Q 255.0213359485973 337.9244273792614 256.1292904940519 337.2505992542614 Q 257.2372450395064 336.5767711292614 258.6488217440519 336.5767711292614 Q 259.51707458496094 336.5767711292614 260.27080327814275 336.824462890625 Q 261.02453197132456 337.0721546519886 261.62644958496094 337.5488947088068 Q 262.2283671985973 338.025634765625 262.62254333496094 338.71011629971593 Q 263.01671947132456 339.3945978338068 263.1552137895064 340.2735040838068 Z M 274.60245028409093 342.18046431107956 Q 274.60245028409093 343.9276234019886 273.9632457386364 345.1820623224432 Q 273.3240411931818 346.43650124289775 272.21342329545456 347.11032936789775 Q 271.10280539772725 347.78415749289775 269.6912286931818 347.78415749289775 Q 268.27432528409093 347.78415749289775 267.1637073863636 347.11032936789775 Q 266.0530894886364 346.43650124289775 265.4138849431818 345.17939897017044 Q 264.77468039772725 343.9222966974432 264.77468039772725 342.18046431107956 Q 264.77468039772725 340.43330522017044 265.4138849431818 339.17886629971593 Q 266.0530894886364 337.9244273792614 267.1637073863636 337.2505992542614 Q 268.27432528409093 336.5767711292614 269.6912286931818 336.5767711292614 Q 271.10280539772725 336.5767711292614 272.21342329545456 337.2505992542614 Q 273.3240411931818 337.9244273792614 273.9632457386364 339.17886629971593 Q 274.60245028409093 340.43330522017044 274.60245028409093 342.18046431107956 Z M 272.9724786931818 342.18046431107956 Q 272.9724786931818 340.84878817471593 272.54367897727275 339.93525834517044 Q 272.1148792613636 339.021728515625 271.37180397727275 338.55031516335225 Q 270.6287286931818 338.07890181107956 269.6912286931818 338.07890181107956 Q 268.7484019886364 338.07890181107956 268.0079900568182 338.55031516335225 Q 267.267578125 339.021728515625 266.83877840909093 339.93525834517044 Q 266.4099786931818 340.84878817471593 266.4099786931818 342.18046431107956 Q 266.4099786931818 343.5121404474432 266.83877840909093 344.4256702769886 Q 267.267578125 345.33920010653407 268.0079900568182 345.8106134588068 Q 268.7484019886364 346.28202681107956 269.6912286931818 346.28202681107956 Q 270.6287286931818 346.28202681107956 271.37180397727275 345.8106134588068 Q 272.1148792613636 345.33920010653407 272.54367897727275 344.4256702769886 Q 272.9724786931818 343.5121404474432 272.9724786931818 342.18046431107956 Z M 276.6507485129616 336.72591885653407 L 278.6482627175071 336.72591885653407 L 282.12127408114344 345.20603249289775 L 282.2491149902344 345.20603249289775 L 285.72212635387075 336.72591885653407 L 287.7196405584162 336.72591885653407 L 287.7196405584162 347.635009765625 L 286.15358942205256 347.635009765625 L 286.15358942205256 339.7408336292614 L 286.05238203568894 339.7408336292614 L 282.8350524902344 347.6190296519886 L 281.53533658114344 347.6190296519886 L 278.31800703568894 339.73550692471593 L 278.2167996493253 339.73550692471593 L 278.2167996493253 347.635009765625 L 276.6507485129616 347.635009765625 Z M 290.1172707297585 347.635009765625 L 290.1172707297585 336.72591885653407 L 294.0057650479403 336.72591885653407 Q 295.278847434304 336.72591885653407 296.1151400479403 337.1893421519886 Q 296.9514326615767 337.6527654474432 297.3669156161222 338.45443448153407 Q 297.7823985706676 339.256103515625 297.7823985706676 340.25752397017044 Q 297.7823985706676 341.2642711292614 297.36425226384944 342.06594016335225 Q 296.94610595703125 342.8676091974432 296.1071499911222 343.33369584517044 Q 295.26819402521306 343.79978249289775 294.0004383433949 343.79978249289775 L 291.3264326615767 343.79978249289775 L 291.3264326615767 342.4041859019886 L 293.8512906161222 342.4041859019886 Q 294.6556230024858 342.4041859019886 295.1563332297585 342.12453391335225 Q 295.65704345703125 341.84488192471593 295.89141845703125 341.36015181107956 Q 296.12579345703125 340.8754216974432 296.12579345703125 340.25752397017044 Q 296.12579345703125 339.63962624289775 295.89141845703125 339.1602228338068 Q 295.65704345703125 338.68081942471593 295.1536698774858 338.40915749289775 Q 294.6502962979403 338.13749556107956 293.8299837979403 338.13749556107956 L 291.763222434304 338.13749556107956 L 291.763222434304 347.635009765625 Z M 299.70558860085225 347.635009765625 L 299.70558860085225 336.72591885653407 L 303.59408291903407 336.72591885653407 Q 304.86183860085225 336.72591885653407 305.7007945667614 337.1627086292614 Q 306.53975053267044 337.5994984019886 306.95523348721593 338.3692072088068 Q 307.3707164417614 339.138916015625 307.3707164417614 340.14566317471593 Q 307.3707164417614 341.1470836292614 306.9525701349432 341.9061390269886 Q 306.534423828125 342.66519442471593 305.69546786221593 343.0860040838068 Q 304.8565118963068 343.50681374289775 303.5887562144886 343.50681374289775 L 300.64308860085225 343.50681374289775 L 300.64308860085225 342.0899103338068 L 303.43960848721593 342.0899103338068 Q 304.23861416903407 342.0899103338068 304.74198774857956 341.86086203835225 Q 305.245361328125 341.63181374289775 305.479736328125 341.19502397017044 Q 305.714111328125 340.7582341974432 305.714111328125 340.14566317471593 Q 305.714111328125 339.5277654474432 305.47707297585225 339.07499556107956 Q 305.24003462357956 338.62222567471593 304.73666104403407 338.37986061789775 Q 304.2332874644886 338.13749556107956 303.41830166903407 338.13749556107956 L 301.35154030539775 338.13749556107956 L 301.35154030539775 347.635009765625 Z M 305.0908868963068 342.713134765625 L 307.7861993963068 347.635009765625 L 305.9111993963068 347.635009765625 L 303.2691539417614 342.713134765625 Z M 310.29657259854406 347.635009765625 L 308.54941350763494 347.635009765625 L 312.47519475763494 336.72591885653407 L 314.3768282803622 336.72591885653407 L 318.3026095303622 347.635009765625 L 316.5554504394531 347.635009765625 L 313.47128850763494 338.7074529474432 L 313.3860612349077 338.7074529474432 Z M 310.58954134854406 343.36299272017044 L 316.2571549849077 343.36299272017044 L 316.2571549849077 344.7479359019886 L 310.58954134854406 344.7479359019886 Z M 325.74224853515625 339.5916859019886 Q 325.657021262429 338.83529385653407 325.03912353515625 338.41714754971593 Q 324.4212258078835 337.99900124289775 323.4837258078835 337.99900124289775 Q 322.81256103515625 337.99900124289775 322.32250421697444 338.2094060724432 Q 321.8324473987926 338.4198109019886 321.5634488192472 338.78469016335225 Q 321.2944502397017 339.14956942471593 321.2944502397017 339.61299272017044 Q 321.2944502397017 340.0018421519886 321.4782215465199 340.28415749289775 Q 321.66199285333806 340.5664728338068 321.96295166015625 340.75557084517044 Q 322.26391046697444 340.94466885653407 322.610146262429 341.06984641335225 Q 322.9563820578835 341.19502397017044 323.2759843306108 341.27492453835225 L 324.3413252397017 341.55191317471593 Q 324.86334228515625 341.6797540838068 325.41199285333806 341.89814897017044 Q 325.9606434215199 342.11654385653407 326.4293934215199 342.47343306107956 Q 326.8981434215199 342.830322265625 327.1884488192472 343.357666015625 Q 327.47875421697444 343.885009765625 327.47875421697444 344.62009499289775 Q 327.47875421697444 345.5469415838068 327.00201416015625 346.2660466974432 Q 326.52527410333806 346.98515181107956 325.6223976828835 347.400634765625 Q 324.719521262429 347.81611772017044 323.4411121715199 347.81611772017044 Q 322.2159701260653 347.81611772017044 321.321083762429 347.42726828835225 Q 320.4261973987926 347.03841885653407 319.92016046697444 346.32197709517044 Q 319.41412353515625 345.6055353338068 319.3608564897017 344.62009499289775 L 321.0121348987926 344.62009499289775 Q 321.0600752397017 345.2113591974432 321.39832097833806 345.60287198153407 Q 321.73656671697444 345.994384765625 322.2665738192472 346.1834827769886 Q 322.7965809215199 346.37258078835225 323.430458762429 346.37258078835225 Q 324.1282570578835 346.37258078835225 324.6742442737926 346.15152254971593 Q 325.2202314897017 345.93046431107956 325.5345070578835 345.5336248224432 Q 325.8487826260653 345.1367853338068 325.8487826260653 344.6041148792614 Q 325.8487826260653 344.119384765625 325.57445734197444 343.8104359019886 Q 325.3001320578835 343.50148703835225 324.83404541015625 343.299072265625 Q 324.367958762429 343.09665749289775 323.782021262429 342.94218306107956 L 322.492958762429 342.59062056107956 Q 321.1825894442472 342.23373135653407 320.41820734197444 341.541259765625 Q 319.6538252397017 340.84878817471593 319.6538252397017 339.7088734019886 Q 319.6538252397017 338.7660466974432 320.1651888760653 338.0629216974432 Q 320.676552512429 337.3597966974432 321.5501320578835 336.96828391335225 Q 322.42371160333806 336.5767711292614 323.5210127397017 336.5767711292614 Q 324.62896728515625 336.5767711292614 325.47857666015625 336.96562056107956 Q 326.32818603515625 337.35446999289775 326.81824285333806 338.0336248224432 Q 327.3082996715199 338.7127796519886 327.3296064897017 339.5916859019886 Z" transform="matrix(2.0107600688934326, 0, 0, 1.799818992614746, -211.13754272460938, -200.89012145996094)" style="fill: rgb(51, 51, 51); white-space: pre;"/>
  <path d="M 149.5775722027344 278.22821861796876 L 149.5775722027344 283.8519574179687 L 140.32079860273438 283.8519574179687 L 140.32079860273438 312.96600341796875 L 133.35333460273438 312.96600341796875 L 133.35333460273438 283.8519574179687 L 124.09656100273438 283.8519574179687 L 124.09656100273438 278.22821861796876 Z M 152.85845628828125 299.08084301796873 Q 152.85845628828125 294.90036461796876 154.52567088828124 291.66547061796877 Q 156.19288548828126 288.43057661796877 159.05452248828124 286.68871061796875 Q 161.91615948828124 284.94684461796874 165.44965908828124 284.94684461796874 Q 168.53525028828125 284.94684461796874 170.84944368828124 286.19103461796874 Q 173.16363708828126 287.43522461796874 174.55712988828125 289.32639341796875 L 174.55712988828125 285.39475301796875 L 181.57436148828126 285.39475301796875 L 181.57436148828126 312.96600341796875 L 174.55712988828125 312.96600341796875 L 174.55712988828125 308.93482781796877 Q 173.21340468828126 310.87576421796877 170.84944368828124 312.14483801796877 Q 168.48548268828125 313.41391181796877 165.39989148828124 313.41391181796877 Q 161.91615948828124 313.41391181796877 159.05452248828124 311.62227821796876 Q 156.19288548828126 309.83064461796874 154.52567088828124 306.57086681796875 Q 152.85845628828125 303.31108901796875 152.85845628828125 299.08084301796873 Z M 174.55712988828125 299.1803782179687 Q 174.55712988828125 296.6422306179687 173.56177788828126 294.82571321796877 Q 172.56642588828126 293.00919581796876 170.87432748828124 292.03872761796873 Q 169.18222908828125 291.06825941796876 167.24129268828125 291.06825941796876 Q 165.30035628828125 291.06825941796876 163.65802548828125 292.01384381796873 Q 162.01569468828126 292.95942821796876 160.99545888828126 294.7759456179688 Q 159.97522308828124 296.5924630179687 159.97522308828124 299.08084301796873 Q 159.97522308828124 301.56922301796874 160.99545888828126 303.43550801796874 Q 162.01569468828126 305.30179301796875 163.68290928828125 306.2971450179688 Q 165.35012388828125 307.29249701796874 167.24129268828125 307.29249701796874 Q 169.18222908828125 307.29249701796874 170.87432748828124 306.32202881796877 Q 172.56642588828126 305.35156061796874 173.56177788828126 303.53504321796873 Q 174.55712988828125 301.7185258179687 174.55712988828125 299.1803782179687 Z M 173.61154548828125 278.22821861796876 L 162.16499748828124 283.45381661796876 L 162.16499748828124 278.47705661796874 L 173.61154548828125 272.55471221796876 Z M 198.44216600507812 299.1803782179687 Q 198.44216600507812 294.90036461796876 200.18403200507814 291.69035441796876 Q 201.92589800507812 288.48034421796876 205.01148920507814 286.71359441796875 Q 208.09708040507812 284.94684461796874 212.07848840507813 284.94684461796874 Q 217.20455120507813 284.94684461796874 220.56386420507812 287.50987601796874 Q 223.92317720507813 290.07290741796874 225.06783200507812 294.7012942179687 L 217.55292440507813 294.7012942179687 Q 216.95571320507813 292.90966061796877 215.5373366050781 291.88942481796875 Q 214.11896000507812 290.8691890179688 212.02872080507814 290.8691890179688 Q 209.04266480507812 290.8691890179688 207.30079880507813 293.03407961796876 Q 205.55893280507811 295.19897021796874 205.55893280507811 299.1803782179687 Q 205.55893280507811 303.1120186179688 207.30079880507813 305.27690921796875 Q 209.04266480507812 307.44179981796873 212.02872080507814 307.44179981796873 Q 216.25896680507813 307.44179981796873 217.55292440507813 303.6594622179687 L 225.06783200507812 303.6594622179687 Q 223.92317720507813 308.1385462179687 220.53898040507812 310.7762290179688 Q 217.15478360507814 313.41391181796877 212.07848840507813 313.41391181796877 Q 208.09708040507812 313.41391181796877 205.01148920507814 311.64716201796875 Q 201.92589800507812 309.88041221796874 200.18403200507814 306.67040201796874 Q 198.44216600507812 303.46039181796874 198.44216600507812 299.1803782179687 Z M 228.40287462324218 299.08084301796873 Q 228.40287462324218 294.90036461796876 230.07008922324218 291.66547061796877 Q 231.7373038232422 288.43057661796877 234.59894082324217 286.68871061796875 Q 237.46057782324218 284.94684461796874 240.99407742324217 284.94684461796874 Q 244.07966862324218 284.94684461796874 246.39386202324218 286.19103461796874 Q 248.7080554232422 287.43522461796874 250.1015482232422 289.32639341796875 L 250.1015482232422 285.39475301796875 L 257.11877982324216 285.39475301796875 L 257.11877982324216 312.96600341796875 L 250.1015482232422 312.96600341796875 L 250.1015482232422 308.93482781796877 Q 248.7578230232422 310.87576421796877 246.39386202324218 312.14483801796877 Q 244.0299010232422 313.41391181796877 240.94430982324218 313.41391181796877 Q 237.46057782324218 313.41391181796877 234.59894082324217 311.62227821796876 Q 231.7373038232422 309.83064461796874 230.07008922324218 306.57086681796875 Q 228.40287462324218 303.31108901796875 228.40287462324218 299.08084301796873 Z M 250.1015482232422 299.1803782179687 Q 250.1015482232422 296.6422306179687 249.1061962232422 294.82571321796877 Q 248.1108442232422 293.00919581796876 246.41874582324218 292.03872761796873 Q 244.72664742324218 291.06825941796876 242.7857110232422 291.06825941796876 Q 240.8447746232422 291.06825941796876 239.2024438232422 292.01384381796873 Q 237.5601130232422 292.95942821796876 236.5398772232422 294.7759456179688 Q 235.51964142324218 296.5924630179687 235.51964142324218 299.08084301796873 Q 235.51964142324218 301.56922301796874 236.5398772232422 303.43550801796874 Q 237.5601130232422 305.30179301796875 239.2273276232422 306.2971450179688 Q 240.89454222324218 307.29249701796874 242.7857110232422 307.29249701796874 Q 244.72664742324218 307.29249701796874 246.41874582324218 306.32202881796877 Q 248.1108442232422 305.35156061796874 249.1061962232422 303.53504321796873 Q 250.1015482232422 301.7185258179687 250.1015482232422 299.1803782179687 Z M 270.89990252109374 289.67476661796877 Q 272.24362772109373 287.48499221796874 274.40851832109377 286.24080221796874 Q 276.57340892109374 284.99661221796873 279.3603945210938 284.99661221796873 L 279.3603945210938 292.31244941796876 L 277.5189933210938 292.31244941796876 Q 274.2343317210937 292.31244941796876 272.56711712109376 293.85524501796874 Q 270.89990252109374 295.3980406179688 270.89990252109374 299.2301458179688 L 270.89990252109374 312.96600341796875 L 263.93243852109373 312.96600341796875 L 263.93243852109373 285.39475301796875 L 270.89990252109374 285.39475301796875 L 270.89990252109374 289.67476661796877 Z M 296.28372759375 313.41391181796877 Q 292.30231959375 313.41391181796877 289.11719319375 311.64716201796875 Q 285.93206679375 309.88041221796874 284.11554939375 306.64551821796874 Q 282.29903199375 303.41062421796875 282.29903199375 299.1803782179687 Q 282.29903199375 294.95013221796876 284.16531699375 291.71523821796876 Q 286.03160199375 288.48034421796876 289.26649599375 286.71359441796875 Q 292.50138999375 284.94684461796874 296.48279799375 284.94684461796874 Q 300.46420599375 284.94684461796874 303.69909999375 286.71359441796875 Q 306.93399399375 288.48034421796876 308.80027899375 291.71523821796876 Q 310.66656399375 294.95013221796876 310.66656399375 299.1803782179687 Q 310.66656399375 303.41062421796875 308.75051139375 306.64551821796874 Q 306.83445879375 309.88041221796874 303.57468099375 311.64716201796875 Q 300.31490319375 313.41391181796877 296.28372759375 313.41391181796877 Z M 296.28372759375 307.34226461796874 Q 298.17489639375 307.34226461796874 299.84211099375 306.42156401796876 Q 301.50932559375 305.50086341796873 302.50467759375 303.6594622179687 Q 303.50002959375 301.8180610179688 303.50002959375 299.1803782179687 Q 303.50002959375 295.24873781796873 301.43467419375 293.13361481796875 Q 299.36931879375 291.01849181796877 296.38326279375 291.01849181796877 Q 293.39720679375 291.01849181796877 291.38161899375 293.13361481796875 Q 289.36603119375 295.24873781796873 289.36603119375 299.1803782179687 Q 289.36603119375 303.1120186179688 291.33185139375 305.22714161796875 Q 293.29767159375 307.34226461796874 296.28372759375 307.34226461796874 Z M 325.49524430039065 277.03379621796876 Q 330.67107470039065 277.03379621796876 333.83131730039065 279.84566561796873 Q 336.9915599003906 282.65753501796877 336.9915599003906 287.58452741796873 Q 336.9915599003906 292.46175221796875 333.85620110039065 295.02478361796875 Q 330.72084230039064 297.58781501796875 325.54501190039065 297.58781501796875 L 325.3459415003906 301.41992021796875 L 319.22452670039064 301.41992021796875 L 318.9756887003906 292.95942821796876 L 321.21523070039063 292.95942821796876 Q 325.54501190039065 292.95942821796876 327.8840891003906 291.81477341796875 Q 330.22316630039063 290.67011861796874 330.22316630039063 287.6342950179687 Q 330.22316630039063 285.44452061796875 328.95409250039063 284.15056301796875 Q 327.68501870039063 282.85660541796875 325.49524430039065 282.85660541796875 Q 323.2059347003906 282.85660541796875 321.9368609003906 284.10079541796875 Q 320.6677871003906 285.34498541796876 320.6677871003906 287.53475981796873 L 314.09846390039064 287.53475981796873 Q 314.04869630039065 284.4989362179688 315.39242150039064 282.11009141796876 Q 316.73614670039063 279.72124661796875 319.34894570039063 278.37752141796875 Q 321.9617447003906 277.03379621796876 325.49524430039065 277.03379621796876 Z M 322.2603503003906 313.3143766179688 Q 320.36918150039065 313.3143766179688 319.14987530039065 312.14483801796877 Q 317.93056910039064 310.97529941796876 317.93056910039064 309.23343341796874 Q 317.93056910039064 307.4915674179687 319.14987530039065 306.32202881796877 Q 320.36918150039065 305.15249021796876 322.2603503003906 305.15249021796876 Q 324.1017515003906 305.15249021796876 325.2961739003906 306.32202881796877 Q 326.4905963003906 307.4915674179687 326.4905963003906 309.23343341796874 Q 326.4905963003906 310.97529941796876 325.2961739003906 312.14483801796877 Q 324.1017515003906 313.3143766179688 322.2603503003906 313.3143766179688 Z" transform="matrix(2.1195790767669678, 0, 0, 2.0975379943847656, -238.05543518066406, -287.1729736328125)" style="fill: rgb(51, 51, 51); line-height: 78.2553px; white-space: pre;"/>
  <rect x="237.553" y="336.827" width="141.838" height="44.604" style="stroke: rgb(0, 0, 0); fill: rgb(39, 174, 96); stroke-width: 0px;" transform="matrix(0.707107, -0.707107, 0.707107, 0.707107, -300.959446, 155.686678)"/>
  <rect x="385.563" y="371.893" width="136.113" height="44.078" style="stroke: rgb(0, 0, 0); fill: rgb(39, 174, 96); stroke-width: 0px;" transform="matrix(0.707107, 0.707107, -0.707107, 0.707107, 195.719989, -410.053381)"/>
  <ellipse style="stroke: rgb(0, 0, 0); fill: rgb(84, 84, 84); stroke-width: 0px;" cx="269.522" cy="133.196" rx="23.397" ry="23.397"/>
  <ellipse style="stroke: rgb(0, 0, 0); fill: rgb(39, 174, 96); stroke-width: 0px;" cx="202.926" cy="245.124" rx="23.397" ry="23.397"/>
  <ellipse style="stroke: rgb(0, 0, 0); fill: rgb(255, 87, 87); stroke-width: 0px;" cx="334.811" cy="244.763" rx="23.397" ry="23.397"/>
  <path d="M 888.591 303.448 L 953.798 369.865 L 823.384 369.865 L 888.591 303.448 Z" style="stroke: rgb(0, 0, 0); fill: rgb(39, 174, 96); stroke-width: 0px;" transform="matrix(0.707107, 0.707107, -0.707107, 0.707107, -10.253853, -754.952891)" bx:shape="triangle 823.384 303.448 130.414 66.417 0.5 0 1@c6e78591"/>
  <rect x="242.049" y="336.827" width="144.523" height="44.604" style="stroke: rgb(0, 0, 0); fill: rgb(39, 174, 96); stroke-width: 0px;" transform="matrix(0.707107, -0.707107, 0.707107, 0.707107, -169.439425, 154.608019)"/>
</svg>